REM DIRINDEX 1\5,1\2\7,1\2\8,1\3\9,1\3\10,1\4\11,1\4\12,1\6\13,1\6\14
REM DIRNAME cjc067,folder01,folder02,folder03,folder04,folder05,folder06,folder07,folder08,folder09,folder10,folder11,folder12,folder13
TITLE ""
FILE "Disk5Track24.mp3" MP3
  TRACK 01 AUDIO
    TITLE "13:cjc067_2335"
    INDEX 01 00:00:00
  TRACK 02 AUDIO
    TITLE "0:"
    INDEX 01 00:01:34
  TRACK 03 AUDIO
    TITLE "14:cjc067_2336"
    INDEX 01 00:02:36
  TRACK 04 AUDIO
    TITLE "0:"
    INDEX 01 00:05:34
  TRACK 05 AUDIO
    TITLE "14:cjc067_2337"
    INDEX 01 00:06:47
  TRACK 06 AUDIO
    TITLE "0:"
    INDEX 01 00:09:24
  TRACK 07 AUDIO
    TITLE "14:cjc067_2338"
    INDEX 01 00:10:37
  TRACK 08 AUDIO
    TITLE "0:"
    INDEX 01 00:13:04
  TRACK 09 AUDIO
    TITLE "14:cjc067_2339"
    INDEX 01 00:14:17
  TRACK 10 AUDIO
    TITLE "0:"
    INDEX 01 00:16:51
  TRACK 11 AUDIO
    TITLE "14:cjc067_2340"
    INDEX 01 00:17:65
  TRACK 12 AUDIO
    TITLE "0:"
    INDEX 01 00:20:22
  TRACK 13 AUDIO
    TITLE "14:cjc067_2341"
    INDEX 01 00:21:35
  TRACK 14 AUDIO
    TITLE "0:"
    INDEX 01 00:24:43
  TRACK 15 AUDIO
    TITLE "14:cjc067_2342"
    INDEX 01 00:25:56
  TRACK 16 AUDIO
    TITLE "0:"
    INDEX 01 00:28:43
  TRACK 17 AUDIO
    TITLE "14:cjc067_2343"
    INDEX 01 00:29:56
  TRACK 18 AUDIO
    TITLE "0:"
    INDEX 01 00:32:31
  TRACK 19 AUDIO
    TITLE "14:cjc067_2344"
    INDEX 01 00:33:42
  TRACK 20 AUDIO
    TITLE "0:"
    INDEX 01 00:38:37
  TRACK 21 AUDIO
    TITLE "14:cjc067_2345"
    INDEX 01 00:39:49
  TRACK 22 AUDIO
    TITLE "0:"
    INDEX 01 00:42:61
  TRACK 23 AUDIO
    TITLE "14:cjc067_2346"
    INDEX 01 00:43:74
  TRACK 24 AUDIO
    TITLE "0:"
    INDEX 01 00:46:00
  TRACK 25 AUDIO
    TITLE "14:cjc067_2347"
    INDEX 01 00:47:11
  TRACK 26 AUDIO
    TITLE "0:"
    INDEX 01 00:49:37
  TRACK 27 AUDIO
    TITLE "14:cjc067_2348"
    INDEX 01 00:50:46
  TRACK 28 AUDIO
    TITLE "0:"
    INDEX 01 00:55:34
  TRACK 29 AUDIO
    TITLE "14:cjc067_2349"
    INDEX 01 00:56:43
  TRACK 30 AUDIO
    TITLE "0:"
    INDEX 01 00:59:02
  TRACK 31 AUDIO
    TITLE "14:cjc067_2350"
    INDEX 01 01:00:12
  TRACK 32 AUDIO
    TITLE "0:"
    INDEX 01 01:04:25
  TRACK 33 AUDIO
    TITLE "14:cjc067_2351"
    INDEX 01 01:05:62
  TRACK 34 AUDIO
    TITLE "0:"
    INDEX 01 01:08:40
  TRACK 35 AUDIO
    TITLE "14:cjc067_2352"
    INDEX 01 01:09:52
  TRACK 36 AUDIO
    TITLE "0:"
    INDEX 01 01:11:39
  TRACK 37 AUDIO
    TITLE "14:cjc067_2353"
    INDEX 01 01:12:52
  TRACK 38 AUDIO
    TITLE "0:"
    INDEX 01 01:15:40
  TRACK 39 AUDIO
    TITLE "14:cjc067_2354"
    INDEX 01 01:16:52
  TRACK 40 AUDIO
    TITLE "0:"
    INDEX 01 01:19:38
  TRACK 41 AUDIO
    TITLE "14:cjc067_2355"
    INDEX 01 01:20:49
  TRACK 42 AUDIO
    TITLE "0:"
    INDEX 01 01:23:07
  TRACK 43 AUDIO
    TITLE "14:cjc067_2356"
    INDEX 01 01:24:18
  TRACK 44 AUDIO
    TITLE "0:"
    INDEX 01 01:27:06
  TRACK 45 AUDIO
    TITLE "14:cjc067_2357"
    INDEX 01 01:28:18
  TRACK 46 AUDIO
    TITLE "0:"
    INDEX 01 01:30:69
  TRACK 47 AUDIO
    TITLE "14:cjc067_2358"
    INDEX 01 01:32:04
  TRACK 48 AUDIO
    TITLE "0:"
    INDEX 01 01:34:01
  TRACK 49 AUDIO
    TITLE "14:cjc067_2359"
    INDEX 01 01:35:12
  TRACK 50 AUDIO
    TITLE "0:"
    INDEX 01 01:38:00
  TRACK 51 AUDIO
    TITLE "14:cjc067_2360"
    INDEX 01 01:39:12
  TRACK 52 AUDIO
    TITLE "0:"
    INDEX 01 01:41:36
  TRACK 53 AUDIO
    TITLE "14:cjc067_2361"
    INDEX 01 01:42:43
  TRACK 54 AUDIO
    TITLE "0:"
    INDEX 01 01:45:22
  TRACK 55 AUDIO
    TITLE "14:cjc067_2362"
    INDEX 01 01:46:35
  TRACK 56 AUDIO
    TITLE "0:"
    INDEX 01 01:48:30
  TRACK 57 AUDIO
    TITLE "14:cjc067_2363"
    INDEX 01 01:49:41
  TRACK 58 AUDIO
    TITLE "0:"
    INDEX 01 01:54:25
  TRACK 59 AUDIO
    TITLE "14:cjc067_2364"
    INDEX 01 01:55:38
  TRACK 60 AUDIO
    TITLE "0:"
    INDEX 01 01:59:69
